<svg xmlns="http://www.w3.org/2000/svg" version="1.1" viewBox="-5.0 -10.0 110.0 135.0" fill="#ffffff">
 <path d="m12.223 40.605c-0.26172 1.0703-1.3438 1.7227-2.4141 1.4609-1.0703-0.26172-1.7227-1.3438-1.4609-2.4141 2.3398-9.4492 7.8125-17.664 15.25-23.477 7.2852-5.6953 16.453-9.0898 26.402-9.0898 9.7383 0 18.719 3.2461 25.922 8.7148l-2.8555 2.8555c-6.4531-4.7578-14.434-7.5703-23.066-7.5703-9.0391 0-17.352 3.0742-23.949 8.2305-6.7422 5.2695-11.707 12.723-13.828 21.289zm67.004-22.035c0.37891 0.35547 0.75391 0.71484 1.1211 1.082 0.60156 0.60547 1.1875 1.2266 1.7539 1.8633l-2.832 2.832c-0.5625-0.64062-1.1445-1.2656-1.7461-1.8672-0.36719-0.36719-0.74219-0.72656-1.125-1.0781l2.8281-2.8281zm5.5781 6.3164c4.2383 5.8672 7.0352 12.852 7.8594 20.422l1.6758-1.7383c0.76172-0.79297 2.0273-0.81641 2.8203-0.054687 0.79297 0.76172 0.81641 2.0273 0.054688 2.8203l-4.7578 4.9375c-0.36719 0.44141-0.92188 0.72266-1.5391 0.72266-0.625 0-1.1875-0.28906-1.5508-0.73828l-4.7422-4.9219c-0.76172-0.79297-0.73828-2.0586 0.054688-2.8203 0.79297-0.76172 2.0586-0.73828 2.8203 0.054687l1.0586 1.0977c-0.85156-6.2266-3.1797-11.988-6.6172-16.914l2.8672-2.8672zm-34.805 8.7266c4.5195 0 8.6211 1.8359 11.586 4.8008 2.9648 2.9648 4.8008 7.0625 4.8008 11.586 0 4.5195-1.8359 8.6211-4.8008 11.586-2.9648 2.9648-7.0625 4.8008-11.586 4.8008-4.5195 0-8.6211-1.8359-11.586-4.8008-2.9648-2.9648-4.8008-7.0625-4.8008-11.586 0-4.5195 1.8359-8.6211 4.8008-11.586 2.9648-2.9648 7.0625-4.8008 11.586-4.8008zm8.7578 7.6289c-2.2383-2.2383-5.3359-3.625-8.7578-3.625s-6.5195 1.3867-8.7578 3.625c-2.2383 2.2383-3.625 5.3359-3.625 8.7578s1.3867 6.5156 3.625 8.7578c2.2383 2.2383 5.3359 3.625 8.7578 3.625s6.5156-1.3867 8.7578-3.625c2.2383-2.2383 3.625-5.3359 3.625-8.7578s-1.3867-6.5195-3.625-8.7578zm-12.973-22.176h8.4297c1.0195 0 1.8633 0.76562 1.9844 1.75l0.72266 4.1445c1.0234 0.28516 2.0312 0.63281 3.0117 1.0391 0.98828 0.41016 1.9453 0.87891 2.8711 1.4062l3.5234-2.4766c0.80469-0.56641 1.8867-0.45313 2.5586 0.22266l5.9609 5.957c0.72266 0.72266 0.77734 1.8633 0.16016 2.6484l-2.4141 3.4336c0.52734 0.92188 0.99609 1.8828 1.4023 2.8672 0.40625 0.96875 0.75 1.9766 1.0352 3.0195l4.2383 0.73828c0.97266 0.16797 1.6562 1.0156 1.6562 1.9688l0.003907 8.4297c0 1.0195-0.76563 1.8633-1.75 1.9844l-4.1484 0.72266c-0.28516 1.0352-0.63281 2.0391-1.0352 3.0117-0.40625 0.98438-0.875 1.9414-1.4062 2.8711l2.4727 3.5234c0.56641 0.80469 0.45312 1.8867-0.22266 2.5586l-5.957 5.9648c-0.72266 0.72266-1.8633 0.77734-2.6484 0.16016l-3.4336-2.4141c-0.92578 0.52734-1.8828 0.99609-2.8711 1.4062-0.97266 0.40234-1.9805 0.74609-3.0156 1.0352l-0.74219 4.2422c-0.16797 0.97266-1.0156 1.6562-1.9688 1.6562l-8.4297 0.003906c-1.0195 0-1.8633-0.76562-1.9844-1.75l-0.72266-4.1406c-1.0312-0.28516-2.0391-0.63281-3.0195-1.0391l-0.097656-0.042969c-0.94922-0.39844-1.875-0.85547-2.7656-1.3594l-3.5234 2.4766c-0.80469 0.56641-1.8867 0.45312-2.5586-0.22266l-5.9609-5.957c-0.72266-0.72266-0.77734-1.8633-0.16016-2.6484l2.4141-3.4336c-0.52344-0.92188-0.99609-1.8828-1.4023-2.8672-0.41016-0.98047-0.75781-1.9883-1.043-3.0195l-4.2344-0.73828c-0.97266-0.16797-1.6562-1.0156-1.6562-1.9688l-0.003906-8.4297c0-1.0195 0.76562-1.8633 1.75-1.9844l4.1406-0.72266c0.28516-1.0312 0.63281-2.0391 1.0391-3.0195l0.042969-0.097657c0.39844-0.94922 0.85547-1.875 1.3594-2.7656l-2.4727-3.5234c-0.56641-0.80469-0.45312-1.8867 0.22266-2.5586l5.957-5.9648c0.72266-0.72266 1.8633-0.77734 2.6484-0.16016l3.4336 2.4141c0.92578-0.52734 1.8828-0.99609 2.8711-1.4062 0.97266-0.40234 1.9766-0.74609 3.0117-1.0352l0.74219-4.2422c0.16797-0.97266 1.0156-1.6562 1.9688-1.6562zm6.75 4h-5.0703l-0.67578 3.8594c-0.14062 0.76953-0.72656 1.4219-1.5391 1.6016-1.2617 0.27734-2.4922 0.66797-3.6719 1.1562-1.1523 0.47656-2.2539 1.0469-3.2852 1.6992-0.67188 0.5-1.6172 0.53906-2.3398 0.03125l-3.207-2.2539-3.5898 3.5859 2.2539 3.207c0.44531 0.64453 0.49219 1.5195 0.046875 2.2188-0.66797 1.043-1.25 2.1562-1.7383 3.3203l-0.035156 0.09375c-0.48047 1.1602-0.86719 2.3789-1.1445 3.6367-0.16016 0.78125-0.78125 1.4219-1.6133 1.5664l-3.8594 0.67188v5.0703l3.8359 0.66797c0.78906 0.12891 1.457 0.72266 1.6328 1.5508 0.27734 1.2656 0.66406 2.4922 1.1484 3.6562 0.47656 1.1562 1.0469 2.2617 1.6992 3.2969 0.5 0.67188 0.53516 1.6172 0.03125 2.3359l-2.2539 3.207 3.5898 3.5859 3.207-2.2539c0.64453-0.44531 1.5195-0.49219 2.2188-0.046875 1.043 0.66797 2.1562 1.25 3.3203 1.7383l0.09375 0.035157c1.1602 0.48047 2.3789 0.86719 3.6367 1.1445 0.78125 0.16016 1.4219 0.78125 1.5664 1.6133l0.67578 3.8594h5.0703l0.67188-3.8594c0.14062-0.76953 0.72656-1.4219 1.5391-1.6016 1.2617-0.27734 2.4922-0.66797 3.6758-1.1562 1.1484-0.47656 2.25-1.0469 3.2852-1.6992 0.67187-0.5 1.6172-0.53906 2.3398-0.03125l3.207 2.2539 3.5898-3.5859-2.2539-3.207c-0.44531-0.64453-0.49219-1.5195-0.046875-2.2188 0.67969-1.0625 1.2734-2.207 1.7734-3.4141 0.46875-1.1289 0.84766-2.3086 1.1211-3.5117 0.11719-0.83594 0.76172-1.5391 1.6367-1.6914l3.8594-0.67188v-5.0703l-3.8594-0.67188c-0.76953-0.14062-1.4219-0.72656-1.6016-1.5391-0.27344-1.25-0.66797-2.4805-1.1562-3.6641-0.47656-1.1562-1.0469-2.2578-1.6953-3.293-0.5-0.67187-0.53906-1.6172-0.03125-2.3398l2.2539-3.207-3.5898-3.5859-3.207 2.2539c-0.64453 0.44531-1.5195 0.49219-2.2188 0.046875-1.0703-0.68359-2.2109-1.2812-3.4062-1.7734-1.1523-0.47656-2.3711-0.86328-3.6445-1.1445l-2.2422-5.4727zm0.67188 3.8594-0.67188-3.8594zm-37.828 26.73c0.76172 0.79297 0.73828 2.0586-0.054687 2.8203-0.79297 0.76172-2.0586 0.73828-2.8203-0.054687l-1.0586-1.0977c1.1797 8.6133 5.1797 16.332 11.035 22.188 7.0391 7.0391 16.77 11.398 27.516 11.398 9.0391 0 17.352-3.0742 23.949-8.2305 6.7422-5.2695 11.707-12.723 13.828-21.289 0.26172-1.0703 1.3438-1.7227 2.4141-1.4609 1.0703 0.26172 1.7227 1.3438 1.4609 2.4141-2.3398 9.4492-7.8125 17.664-15.25 23.477-7.2852 5.6953-16.453 9.0898-26.402 9.0898-11.848 0-22.578-4.8047-30.344-12.57-6.7266-6.7266-11.234-15.68-12.316-25.656l-1.6719 1.7383c-0.76172 0.79297-2.0273 0.81641-2.8203 0.054687-0.79297-0.76172-0.81641-2.0273-0.054688-2.8203l4.7344-4.9141c0.36719-0.45703 0.92969-0.74609 1.5586-0.74609 0.62109 0 1.1797 0.28516 1.5469 0.73047z"/>
</svg>